OpenSim_Sub05_CSBaseline_GRF.mot
version=1
nRows=52
nColumns=19
inDegrees=no
endheader
time	lFx	lFy	lFz	lCOPx	lCOPy	lCOPz	rFx	rFy	rFz	rCOPx	rCOPy	rCOPz	lMx	lMy	lMz	rMx	rMy	rMz
79.17000000	-6.83212826	-0.74179677	-3.04832848	-0.00000340	0	0.00000196	-8.10892542	748.75240926	-72.19809864	1.00236158	0	-0.34301939	0	0.00003494	0	0	-1.41168515	0.00000000
79.18000000	-7.08873745	-0.64624778	-3.30501126	-0.00001704	0	0.00000947	-6.07198004	748.38048494	-72.13590098	0.99746469	0	-0.34304977	0	0.00004774	0	0	-1.23283982	0
79.19000000	-7.29880654	-0.56943282	-3.57256206	-0.00003933	0	0.00002159	-4.15248064	749.84725644	-71.84719853	0.99253462	0	-0.34313068	0	0.00001351	0	0	-1.03041970	0
79.20000000	-7.42723915	-0.56923515	-3.83446158	-0.00005575	0	0.00003018	-2.66925054	753.38929248	-71.48288909	0.98767622	0	-0.34324224	0	-0.00013964	0	0	-0.86582068	0.00000000
79.21000000	-7.50662220	-0.60221059	-4.01722215	-0.00002140	0	0.00001046	-1.69657592	758.22943654	-71.15150178	0.98282065	0	-0.34337353	0	-0.00047828	0	0	-0.71593716	0.00000000
79.22000000	-7.56432527	-0.61701168	-4.13480283	0.00014595	0	-0.00008244	-1.26853598	763.18768566	-70.86815900	0.97808038	0	-0.34349685	0	-0.00093345	0	0	-0.54387160	0
79.23000000	-7.56445179	-0.55992274	-4.24014097	0.00052759	0	-0.00029185	-1.40400947	767.28825718	-70.62412803	0.97364543	0	-0.34360961	0	-0.00104173	0	0	-0.35799967	0
79.24000000	-7.46178192	-0.45344219	-4.26493913	0.00106042	0	-0.00058014	-1.85685899	770.29022165	-70.56250998	0.96956651	0	-0.34370347	0	0.00035303	0	0	-0.15034694	-0.00000000
79.25000000	-7.23469087	-0.39705020	-4.18901816	0.00124309	0	-0.00066789	-2.22452889	772.55093373	-70.85279216	0.96565111	0	-0.34379747	0	0.00502999	0	0	0.11131311	0
79.26000000	-6.88694048	-0.44359171	-4.03561066	-0.00021853	0	0.00015684	-2.11883437	774.70107700	-71.55132055	0.96171972	0	-0.34391685	0	0.01404740	0	0	0.38760613	0.00000000
79.27000000	-6.48009086	-0.63423202	-3.82799287	-0.00538210	0	0.00301231	-1.45666353	777.41598292	-72.61529523	0.95768020	0	-0.34406638	0	0.02389593	0	0	0.64067577	0
79.28000000	-6.22623084	-0.99159374	-3.64526753	-0.01563447	0	0.00861951	-0.31423639	780.84178081	-73.80896412	0.95343485	0	-0.34423713	0	0.01982829	0	0	0.91138136	0
79.29000000	-6.68662824	-1.12028895	-3.43520965	-0.02741542	0	0.01494360	1.11252672	784.61987427	-74.92867316	0.94903679	0	-0.34444176	0	-0.02995850	0	0	1.21811482	0
79.30000000	-8.61755290	-0.01812383	-3.11462454	-0.02457597	0	0.01302626	2.69130344	788.28304210	-75.78442598	0.94461576	0	-0.34470310	0	-0.16682546	0	0	1.50737361	0
79.31000000	-12.25732566	3.70674207	-2.77640264	0.02878150	0	-0.01681883	4.37396861	791.33346448	-76.17460072	0.94014512	0	-0.34506021	0	-0.39669709	0	0	1.78608163	0
79.32000000	-16.30100790	12.05485220	-2.69568123	0.18122780	0	-0.10084051	6.24692219	793.44216246	-76.09512319	0.93562563	0	-0.34554819	0	-0.58085967	0	0	2.08752493	0
79.33000000	-17.88785578	29.23846199	-3.27976833	0.44597863	0	-0.24512395	8.45423504	794.33272503	-75.58831606	0.93108468	0	-0.34613109	0	-0.27529019	0	0	2.36069981	0
79.34000000	-13.66370985	61.79185370	-4.26585513	0.74949179	0	-0.40933541	11.21634613	793.41623716	-74.80322889	0.92632176	0	-0.34676692	0	1.10526871	0	0	2.53918394	0
79.35000000	-3.98433031	114.15214241	-4.39287419	0.98746018	0	-0.54051376	14.49577891	790.21601150	-73.93009941	0.92131416	0	-0.34743406	0	3.39138783	0	0	2.66171496	0
79.36000000	3.46157439	182.94674534	-1.84363950	1.10272270	0	-0.60958940	17.88287425	784.48899992	-72.89518041	0.91619237	0	-0.34811471	0	5.54222766	0	0	2.74873677	0.00000000
79.37000000	1.98873989	259.25527090	4.42198859	1.12898208	0	-0.63183485	21.05397372	776.13468948	-71.57489230	0.91116698	0	-0.34880578	0	6.81516880	0	0	2.76442833	0
79.38000000	-6.95485457	334.63461408	14.15602905	1.11814280	0	-0.63249752	24.25325046	764.83028240	-69.89845364	0.90611301	0	-0.34957561	0	7.05461075	0	0	2.74910590	0
79.39000000	-18.42495543	403.27829891	25.83730079	1.10175667	0	-0.62808696	27.96865141	750.11676566	-67.73979350	0.90095508	0	-0.35044812	0	6.55004152	0	0	2.72671545	-0.00000000
79.40000000	-28.94777216	462.06406736	37.33836988	1.09057193	0	-0.62512547	32.55038072	731.31828720	-65.12321742	0.89588358	0	-0.35138360	0	5.70953920	0	0	2.61055147	0
79.41000000	-36.55877640	510.27028196	47.02021986	1.08438487	0	-0.62457469	37.87697451	707.27898170	-62.00483812	0.89099266	0	-0.35228217	0	4.79492031	0	0	2.37965003	0
79.42000000	-40.15379675	549.59452786	54.58233888	1.07957082	0	-0.62544920	43.44004584	676.21406532	-58.04319991	0.88603098	0	-0.35304129	0	3.91982387	0	0	2.15226068	0
79.43000000	-39.86681374	583.90314886	60.74118282	1.07388813	0	-0.62669878	48.85219020	636.29393229	-52.72078765	0.88095483	0	-0.35359524	0	3.14826855	0	0	1.92316663	0.00000000
79.44000000	-36.78364497	617.16745639	66.00304017	1.06717686	0	-0.62776458	53.39257625	586.35722912	-45.60238014	0.87597472	0	-0.35396296	0	2.56851087	0	0	1.68102028	-0.00000000
79.45000000	-32.47366743	651.55356680	70.38401168	1.06013065	0	-0.62850111	56.10805864	526.30519739	-36.84575159	0.87143528	0	-0.35441481	0	2.28689905	0	0	1.52795589	0.00000000
79.46000000	-28.46393938	686.66728918	73.72412339	1.05314768	0	-0.62895080	56.27517149	457.27390459	-27.31112594	0.86808759	0	-0.35548397	0	2.29633268	0	0	1.47457374	0
79.47000000	-25.45001849	720.02368465	75.97548833	1.04647975	0	-0.62919344	53.60340270	381.93911768	-18.18277445	0.86762755	0	-0.35799899	0	2.51969212	0	0	1.44742796	0
79.48000000	-23.23674185	748.91130779	77.27847853	1.04014767	0	-0.62932453	47.59772476	304.99403744	-10.45710604	0.87217723	0	-0.36283396	0	2.92176751	0	0	1.39338251	0
79.49000000	-21.49318806	771.86079751	78.25385218	1.03409970	0	-0.62941537	37.45734903	232.49940891	-4.60205148	0.88134049	0	-0.36952142	0	3.32438192	0	0	1.23131566	-0.00000000
79.50000000	-19.88215370	788.38142320	79.39382572	1.02815094	0	-0.62952156	23.70248660	169.48649104	-0.85581097	0.88564390	0	-0.37348959	0	3.50748841	0	0	0.93922053	0
79.51000000	-17.99734712	798.40457705	80.68191306	1.02228331	0	-0.62974089	9.20602015	118.46298693	0.81339231	0.85969334	0	-0.36285190	0	3.39787398	0	0	0.58434105	0
79.52000000	-15.86465038	802.33243282	82.13956921	1.01653023	0	-0.63015494	-3.06689625	79.41978506	0.97852400	0.76133817	0	-0.31861286	0	3.00638979	0	0	0.28076089	0
79.53000000	-13.96168617	800.85765165	83.73484295	1.01079919	0	-0.63073745	-11.25297672	50.69945455	0.30389037	0.55540442	0	-0.22750201	0	2.40802647	0	0	0.09165365	0
79.54000000	-12.51148067	794.93862417	85.19281525	1.00502247	0	-0.63142607	-14.43995887	30.30916315	-0.43769568	0.28909576	0	-0.11428363	0	1.74683201	0	0	0.01843206	-0.00000000
79.55000000	-11.31635035	785.80664931	86.12325220	0.99931507	0	-0.63213105	-12.37451146	15.87998990	-0.70017851	0.08817022	0	-0.03262625	0	1.14208773	0	0	-0.00812006	0.00000000
79.56000000	-10.19321068	775.00103783	86.14118473	0.99385799	0	-0.63278711	-7.25973619	6.10736420	-0.68169134	-0.00511491	0	0.00381985	0	0.65159197	0	0	-0.01141128	0
79.57000000	-9.10078106	764.20400704	85.19741033	0.98875106	0	-0.63334185	-2.62250162	0.73252691	-0.51006970	-0.02737851	0	0.01168566	0	0.32834257	0	0	-0.00706390	-0.00000000
79.58000000	-8.03712651	754.79572365	83.62540760	0.98367427	0	-0.63376766	-0.09421208	-1.15844342	-0.25501037	-0.02073698	0	0.00841930	0	0.16672828	0	0	-0.00268896	-0.00000000
79.59000000	-6.83675454	747.44793869	81.93884104	0.97833126	0	-0.63407026	0.70449709	-1.17339332	-0.14756164	-0.00950797	0	0.00370999	0	0.08131130	0	0	-0.00030625	-0.00000000
79.60000000	-5.35988644	742.29375960	80.49914496	0.97265391	0	-0.63429685	0.70360956	-0.60550382	-0.11224368	-0.00220117	0	0.00077245	0	-0.01072039	0	0	0.00046209	0
79.61000000	-3.79307129	739.14025711	79.46712722	0.96688106	0	-0.63452635	0.51226697	-0.16090438	-0.08991646	0.00073180	0	-0.00035528	0	-0.14432473	0	0	0.00045353	0.00000000
79.62000000	-2.43091038	737.44557504	78.84390500	0.96134065	0	-0.63480296	0.34011206	-0.02734587	-0.10503539	0.00117083	0	-0.00049031	0	-0.33060237	0	0	0.00024399	0.00000000
79.63000000	-1.21552499	736.48743359	78.52656031	0.95600152	0	-0.63510185	0.22054152	-0.10627546	-0.12735885	0.00075150	0	-0.00030183	0	-0.55943900	0	0	0.00007722	-0.00000000
79.64000000	0.10134821	735.95614757	78.45792505	0.95055161	0	-0.63542502	0.16277267	-0.23776122	-0.18058813	0.00029746	0	-0.00011418	0	-0.79603133	0	0	-0.00000205	0.00000000
79.65000000	1.71264670	735.89287946	78.51627552	0.94495155	0	-0.63576795	0.14089008	-0.33721835	-0.22562246	0.00004177	0	-0.00001251	0	-1.01448322	0	0	-0.00002203	-0.00000000
79.66000000	3.59016017	736.44567850	78.56418540	0.93938297	0	-0.63610242	0.11840181	-0.38783956	-0.25663010	-0.00004476	0	0.00002003	0	-1.18382880	0	0	-0.00001724	0.00000000
79.67000000	5.65291637	737.43395265	78.54168219	0.93390332	0	-0.63640967	0.11020832	-0.39288839	-0.26504500	-0.00004716	0	0.00001946	0	-1.27224330	0	0	-0.00000812	-0.00000000
79.68000000	7.93012048	738.53605732	78.39112685	0.92849027	0	-0.63672945	0.14022903	-0.39864964	-0.26490788	-0.00002631	0	0.00001044	0	-1.29281160	0	0	-0.00000200	-0.00000000
